<svg xmlns="http://www.w3.org/2000/svg" viewBox="0 0 1024 1024">
  <defs>
    <linearGradient id="bg" x1="0" y1="0" x2="1" y2="1">
      <stop offset="0" stop-color="#EF9258"/>
      <stop offset=".5" stop-color="#D2603A"/>
      <stop offset="1" stop-color="#9E3D28"/>
    </linearGradient>
    <radialGradient id="glow" cx=".5" cy=".5" r=".5">
      <stop offset="0" stop-color="#FFD9B0" stop-opacity=".55"/>
      <stop offset="1" stop-color="#FFD9B0" stop-opacity="0"/>
    </radialGradient>
    <radialGradient id="core" cx=".4" cy=".35" r=".75">
      <stop offset="0" stop-color="#FFE3A0"/>
      <stop offset=".55" stop-color="#F4A64C"/>
      <stop offset="1" stop-color="#D96A3A"/>
    </radialGradient>
    <linearGradient id="p0" x1="0" y1="1" x2="0" y2="0">
      <stop offset="0" stop-color="#FFF8EE"/>
      <stop offset="1" stop-color="#F6D083"/>
    </linearGradient>
<linearGradient id="p1" x1="0" y1="1" x2="0" y2="0">
      <stop offset="0" stop-color="#FFF8EE"/>
      <stop offset="1" stop-color="#B9C79C"/>
    </linearGradient>
<linearGradient id="p2" x1="0" y1="1" x2="0" y2="0">
      <stop offset="0" stop-color="#FFF8EE"/>
      <stop offset="1" stop-color="#C1A5BA"/>
    </linearGradient>
<linearGradient id="p3" x1="0" y1="1" x2="0" y2="0">
      <stop offset="0" stop-color="#FFF8EE"/>
      <stop offset="1" stop-color="#F6BC9C"/>
    </linearGradient>
<linearGradient id="p4" x1="0" y1="1" x2="0" y2="0">
      <stop offset="0" stop-color="#FFF8EE"/>
      <stop offset="1" stop-color="#B0BAC6"/>
    </linearGradient>
<linearGradient id="p5" x1="0" y1="1" x2="0" y2="0">
      <stop offset="0" stop-color="#FFF8EE"/>
      <stop offset="1" stop-color="#C4A58C"/>
    </linearGradient>
<linearGradient id="p6" x1="0" y1="1" x2="0" y2="0">
      <stop offset="0" stop-color="#FFF8EE"/>
      <stop offset="1" stop-color="#E18F83"/>
    </linearGradient>
<linearGradient id="p7" x1="0" y1="1" x2="0" y2="0">
      <stop offset="0" stop-color="#FFF8EE"/>
      <stop offset="1" stop-color="#EBB8BF"/>
    </linearGradient>
    <filter id="soft" x="-30%" y="-30%" width="160%" height="160%">
      <feDropShadow dx="0" dy="16" stdDeviation="22" flood-color="#5E1F0F" flood-opacity=".38"/>
    </filter>
  </defs>
  <rect width="1024" height="1024" rx="228" fill="url(#bg)"/>
  <circle cx="512" cy="512" r="440" fill="url(#glow)"/>
  <g transform="translate(512 518)" filter="url(#soft)">
        <path d="M0 -58 C 52 -100 104 -172 104 -232 A 104 104 0 0 0 -104 -232 C -104 -172 -52 -100 0 -58 Z" fill="url(#p0)" transform="rotate(0) scale(.9)"/>
    <path d="M0 -58 C 52 -100 104 -172 104 -232 A 104 104 0 0 0 -104 -232 C -104 -172 -52 -100 0 -58 Z" fill="url(#p1)" transform="rotate(45) scale(.9)"/>
    <path d="M0 -58 C 52 -100 104 -172 104 -232 A 104 104 0 0 0 -104 -232 C -104 -172 -52 -100 0 -58 Z" fill="url(#p2)" transform="rotate(90) scale(.9)"/>
    <path d="M0 -58 C 52 -100 104 -172 104 -232 A 104 104 0 0 0 -104 -232 C -104 -172 -52 -100 0 -58 Z" fill="url(#p3)" transform="rotate(135) scale(.9)"/>
    <path d="M0 -58 C 52 -100 104 -172 104 -232 A 104 104 0 0 0 -104 -232 C -104 -172 -52 -100 0 -58 Z" fill="url(#p4)" transform="rotate(180) scale(.9)"/>
    <path d="M0 -58 C 52 -100 104 -172 104 -232 A 104 104 0 0 0 -104 -232 C -104 -172 -52 -100 0 -58 Z" fill="url(#p5)" transform="rotate(225) scale(.9)"/>
    <path d="M0 -58 C 52 -100 104 -172 104 -232 A 104 104 0 0 0 -104 -232 C -104 -172 -52 -100 0 -58 Z" fill="url(#p6)" transform="rotate(270) scale(.9)"/>
    <path d="M0 -58 C 52 -100 104 -172 104 -232 A 104 104 0 0 0 -104 -232 C -104 -172 -52 -100 0 -58 Z" fill="url(#p7)" transform="rotate(315) scale(.9)"/>
    <circle r="58.0" fill="url(#core)"/>
  </g>
</svg>